<svg xmlns="http://www.w3.org/2000/svg" viewBox="0 0 200 200" fill="none">
  <!-- Doctor -->
  <circle cx="70" cy="65" r="22" fill="#0ea5e9" opacity="0.2"/>
  <circle cx="70" cy="65" r="16" fill="#0ea5e9" opacity="0.4"/>
  <rect x="45" y="85" width="50" height="55" rx="8" fill="#0ea5e9" opacity="0.15"/>
  <path d="M55 95H65V85H75V95H85V105H75V115H65V105H55V95Z" fill="#0ea5e9" opacity="0.5"/>
  <!-- Cross on chest -->
  <path d="M63 100H77M70 93V107" stroke="#0ea5e9" stroke-width="2.5" stroke-linecap="round"/>

  <!-- Patient -->
  <circle cx="138" cy="70" r="18" fill="#22c55e" opacity="0.2"/>
  <circle cx="138" cy="70" r="13" fill="#22c55e" opacity="0.3"/>
  <path d="M115 100C115 88 125 80 138 80C151 80 161 88 161 100V145H115V100Z" fill="#22c55e" opacity="0.12"/>
  <path d="M122 108H154M138 94V126" stroke="#22c55e" stroke-width="2" stroke-linecap="round" opacity="0.4"/>

  <!-- Connecting line -->
  <path d="M95 100C102 105 108 105 115 100" stroke="#0ea5e9" stroke-width="1.5" stroke-dasharray="4 3" opacity="0.3"/>
</svg>
